<svg width="17" height="4" viewBox="0 0 17 4" fill="none" xmlns="http://www.w3.org/2000/svg">
<path d="M2.1773 2H2.18668H2.1773ZM8.7436 2H8.75298H8.7436ZM15.3099 2H15.3193H15.3099ZM3.11534 2C3.11534 2.26522 3.01651 2.51957 2.8406 2.70711C2.66468 2.89464 2.42608 3 2.1773 3C1.92852 3 1.68992 2.89464 1.514 2.70711C1.33809 2.51957 1.23926 2.26522 1.23926 2C1.23926 1.73478 1.33809 1.48043 1.514 1.29289C1.68992 1.10536 1.92852 1 2.1773 1C2.42608 1 2.66468 1.10536 2.8406 1.29289C3.01651 1.48043 3.11534 1.73478 3.11534 2V2ZM9.68164 2C9.68164 2.26522 9.58281 2.51957 9.40689 2.70711C9.23097 2.89464 8.99238 3 8.7436 3C8.49481 3 8.25622 2.89464 8.0803 2.70711C7.90438 2.51957 7.80555 2.26522 7.80555 2C7.80555 1.73478 7.90438 1.48043 8.0803 1.29289C8.25622 1.10536 8.49481 1 8.7436 1C8.99238 1 9.23097 1.10536 9.40689 1.29289C9.58281 1.48043 9.68164 1.73478 9.68164 2V2ZM16.2479 2C16.2479 2.26522 16.1491 2.51957 15.9732 2.70711C15.7973 2.89464 15.5587 3 15.3099 3C15.0611 3 14.8225 2.89464 14.6466 2.70711C14.4707 2.51957 14.3718 2.26522 14.3718 2C14.3718 1.73478 14.4707 1.48043 14.6466 1.29289C14.8225 1.10536 15.0611 1 15.3099 1C15.5587 1 15.7973 1.10536 15.9732 1.29289C16.1491 1.48043 16.2479 1.73478 16.2479 2V2Z" stroke="white" stroke-width="1.5" stroke-linecap="round" stroke-linejoin="round"/>
</svg>
